<svg role="img" viewBox="0 0 800 800" xmlns="http://www.w3.org/2000/svg" id="Langchain--Streamline-Simple-Icons.svg" height="800" width="800"><desc>Langchain Streamline Icon: https://streamlinehq.com</desc><title>LangChain</title><path d="M203.29333333333335 197.25000000000003C91.19666666666667 197.25000000000003 0 288.2066666666667 0 400s91.20000000000002 202.75 203.29333333333335 202.75h393.41333333333336C708.8033333333334 602.75 800 511.79333333333335 800 400s-91.20000000000002 -202.75 -203.29333333333335 -202.75ZM199.2466666666667 261.70000000000005c16.433333333333334 0.41333333333333333 34 8.32 42.43333333333333 20.76 12.243333333333334 15.306666666666668 15.926666666666668 35.56 29.813333333333336 49.77333333333334 18.680000000000003 20.393333333333334 39.96666666666667 38.35000000000001 57.20333333333333 60.06666666666667 16.30666666666667 19.84666666666667 27.953333333333337 43.12333333333334 38.120000000000005 66.58333333333334 4.1466666666666665 7.783333333333334 4.19 17.34 10.333333333333334 23.990000000000002 3.0266666666666673 4.013333333333334 17.82 14.943333333333333 14.610000000000001 18.816666666666666 1.85 4.013333333333334 15.673333333333336 9.533333333333333 10.876666666666667 13.423333333333334 -6.48 1.3333333333333335 -13.763333333333334 1.586666666666667 -18.720000000000002 -3.58 -1.83 4.2 -6.1000000000000005 1.9866666666666668 -9.396666666666667 1.4400000000000002a133.33333333333334 133.33333333333334 0 0 0 -0.8333333333333335 2.4533333333333336c-10.96 0.73 -19.180000000000003 -10.42 -24.400000000000002 -18.833333333333332 -10.370000000000001 -5.6000000000000005 -22.14 -9.006666666666668 -32.733333333333334 -14.866666666666667 -0.6066666666666667 9.65 1.5066666666666666 21.616666666666667 -7.700000000000001 27.843333333333337 -0.46666666666666673 18.55 28.12 2.186666666666667 30.740000000000002 16.013333333333335 -2.033333333333333 0.22333333333333336 -4.286666666666667 -0.3166666666666667 -5.913333333333334 1.2433333333333334 -7.463333333333334 7.24 -16.016666666666666 -5.483333333333334 -24.61666666666667 -0.23333333333333336 -11.546666666666667 5.8 -12.693333333333335 10.536666666666667 -26.986666666666668 11.733333333333334 -0.79 -1.1966666666666668 -0.4766666666666667 -1.9733333333333336 0.19666666666666668 -2.7033333333333336 4.023333333333333 -4.663333333333333 4.316666666666667 -10.153333333333334 11.186666666666667 -12.143333333333334 -7.073333333333334 -1.1133333333333333 -12.996666666666668 2.776666666666667 -18.953333333333333 5.856666666666667 -7.743333333333334 3.166666666666667 -7.680000000000001 -7.136666666666668 -19.593333333333334 0.5466666666666667 -1.3200000000000003 -1.0733333333333335 -0.6933333333333334 -2.0500000000000003 0.060000000000000005 -2.8800000000000003 3.0266666666666673 -3.6900000000000004 7.006666666666667 -4.233333333333333 11.5 -4.026666666666667 -22.1 -12.286666666666667 -32.50333333333334 15.023333333333333 -42.71000000000001 1.4400000000000002 -3.066666666666667 0.81 -4.216666666666667 3.5600000000000005 -6.15 5.506666666666668 -1.666666666666667 -1.8266666666666669 -0.41000000000000003 -4.04 -0.33000000000000007 -6.19 -1.9933333333333334 -0.9333333333333335 -4.5200000000000005 -1.366666666666667 -3.9300000000000006 -4.553333333333334 -3.9033333333333333 -1.3166666666666669 -6.626666666666667 0.9833333333333334 -9.533333333333333 3.173333333333334 -2.6233333333333335 -2.026666666666667 1.7733333333333334 -4.973333333333334 2.586666666666667 -7.083333333333334 2.3400000000000003 -4.053333333333334 7.666666666666668 -0.8333333333333335 10.370000000000001 -3.753333333333334 7.686666666666667 -4.36 18.400000000000002 2.7133333333333334 27.183333333333337 1.5166666666666668 6.7666666666666675 0.85 15.146666666666668 -6.083333333333334 11.753333333333336 -13.000000000000002 -7.236666666666666 -9.223333333333334 -5.966666666666667 -21.286666666666665 -6.130000000000001 -32.31666666666667 -0.8933333333333334 -6.43 -16.366666666666667 -14.606666666666667 -20.84 -21.540000000000003 -5.53 -6.243333333333333 -9.833333333333334 -13.49 -14.143333333333334 -20.606666666666666 -15.553333333333335 -30.02666666666667 -10.66 -68.61333333333333 -30.256666666666668 -96.49 -8.866666666666667 4.886666666666668 -20.416666666666668 2.58 -28.060000000000002 -3.966666666666667 -4.126666666666667 3.7500000000000004 -4.3066666666666675 8.66 -4.633333333333334 13.870000000000001 -9.9 -9.873333333333335 -8.643333333333333 -28.53 -0.7333333333333334 -39.51666666666667 3.2300000000000004 -4.340000000000001 7.090000000000001 -7.910000000000001 11.400000000000002 -11.053333333333335 0.9733333333333334 -0.7100000000000001 1.3033333333333335 -1.3966666666666667 1.2833333333333334 -2.49 3.9133333333333336 -17.556666666666665 19.213333333333335 -24.636666666666667 35.64666666666667 -24.223333333333336m413.57000000000005 15.333333333333336c18.583333333333336 0 36.02 7.196666666666667 49.13333333333333 20.273333333333333s20.333333333333336 30.483333333333334 20.333333333333336 49.013333333333335c0 18.533333333333335 -7.223333333333334 35.93333333333334 -20.333333333333336 48.99333333333334v0.02l-30.06666666666667 29.983333333333334a69.33333333333334 69.33333333333334 0 0 1 -28.65666666666667 17.22l-0.5466666666666667 0.15666666666666668 -0.19333333333333333 0.5466666666666667a68.33333333333333 68.33333333333333 0 0 1 -15.8 24.360000000000003l-30.060000000000002 29.983333333333334c-13.113333333333335 13.080000000000002 -30.56666666666667 20.276666666666667 -49.15 20.276666666666667s-36.02 -7.2 -49.13333333333333 -20.276666666666667c-27.1 -27.023333333333333 -27.1 -70.98 0 -98.00666666666667l30.063333333333336 -29.983333333333334a68.53333333333335 68.53333333333335 0 0 1 28.6 -17.143333333333334l0.5666666666666668 -0.17666666666666667 0.19333333333333333 -0.5266666666666667a69 69 0 0 1 15.840000000000002 -24.45666666666667l30.060000000000002 -29.983333333333334c13.113333333333335 -13.080000000000002 30.570000000000004 -20.276666666666667 49.15 -20.276666666666667zm0 29.883333333333333a39.333333333333336 39.333333333333336 0 0 0 -27.96 11.540000000000001l-30.060000000000002 29.983333333333334a39.366666666666674 39.366666666666674 0 0 0 -11.423333333333334 30.840000000000003l0.17666666666666667 1.9066666666666667c1.0766666666666669 8.84 4.966666666666667 16.813333333333333 11.246666666666666 23.05666666666667 4.333333333333334 4.32 9.11 7.046666666666668 14.903333333333334 8.953333333333335a30.000000000000004 30.000000000000004 0 0 1 0.46666666666666673 5.273333333333334 29.46666666666667 29.46666666666667 0 0 1 -8.696666666666667 21.013333333333332l-1.8466666666666667 1.8466666666666667c-10.043333333333335 -3.426666666666667 -18.416666666666668 -8.433333333333334 -25.98 -15.973333333333334a68.66666666666667 68.66666666666667 0 0 1 -19.203333333333333 -36.56l-0.33000000000000007 -1.9266666666666667 -1.5366666666666668 1.2266666666666668a36.66666666666667 36.66666666666667 0 0 0 -2.92 2.646666666666667l-30.080000000000002 29.983333333333334c-15.41 15.366666666666669 -15.41 40.4 0 55.76666666666667 7.703333333333334 7.6833333333333345 17.833333333333336 11.533333333333333 27.980000000000004 11.536666666666669 10.143333333333334 0 20.256666666666668 -3.8533333333333335 27.96 -11.540000000000001l30.063333333333336 -29.983333333333334c15.41 -15.366666666666669 15.41 -40.37666666666667 0 -55.76666666666667a39 39 0 0 0 -14.556666666666667 -9.163333333333334 33.333333333333336 33.333333333333336 0 0 1 -0.46666666666666673 -5.37c0 -8.636666666666667 3.41 -16.833333333333336 9.670000000000002 -23.076666666666668 10.063333333333334 3.426666666666667 19 8.98 26.540000000000003 16.5 10.023333333333335 9.996666666666668 16.64666666666667 22.633333333333336 19.186666666666667 36.56l0.35000000000000003 1.9266666666666667 1.5166666666666668 -1.2433333333333334a36.66666666666667 36.66666666666667 0 0 0 2.956666666666667 -2.646666666666667l30.06666666666667 -29.986666666666668c15.406666666666668 -15.366666666666669 15.426666666666668 -40.413333333333334 0 -55.78333333333334a39.333333333333336 39.333333333333336 0 0 0 -27.983333333333338 -11.540000000000001Zm-332.4333333333334 171.89000000000001 -0.02 0.02c-2.6433333333333335 10.260000000000002 -3.4933333333333336 27.726666666666667 -16.866666666666667 28.233333333333334 -1.1 5.920000000000001 4.093333333333334 8.15 8.850000000000001 6.246666666666667 4.7 -2.1500000000000004 6.936666666666667 1.6933333333333334 8.523333333333333 5.523333333333333 7.256666666666668 1.0566666666666666 17.98 -2.4166666666666665 18.386666666666667 -10.993333333333334 -10.833333333333334 -6.223333333333334 -14.176666666666668 -18.06 -18.873333333333335 -29.03" fill="#000000" stroke-width="1"></path></svg>